<mxfile host="Electron" modified="2024-05-11T00:59:42.184Z" agent="Mozilla/5.0 (Windows NT 10.0; Win64; x64) AppleWebKit/537.36 (KHTML, like Gecko) draw.io/24.2.5 Chrome/120.0.6099.109 Electron/28.1.0 Safari/537.36" etag="voai_JB9pLI813-F1TJb" version="24.2.5" type="device">
  <diagram name="Page-1" id="9f46799a-70d6-7492-0946-bef42562c5a5">
    <mxGraphModel dx="2267" dy="1102" grid="1" gridSize="10" guides="1" tooltips="1" connect="1" arrows="1" fold="1" page="1" pageScale="1" pageWidth="1100" pageHeight="850" background="none" math="0" shadow="0">
      <root>
        <mxCell id="0" />
        <mxCell id="1" parent="0" />
        <mxCell id="78961159f06e98e8-17" value="cg9a01.c" style="swimlane;html=1;fontStyle=1;align=center;verticalAlign=top;childLayout=stackLayout;horizontal=1;startSize=26;horizontalStack=0;resizeParent=1;resizeLast=0;collapsible=1;marginBottom=0;swimlaneFillColor=#ffffff;rounded=0;shadow=0;comic=0;labelBackgroundColor=none;strokeWidth=1;fillColor=none;fontFamily=Verdana;fontSize=12" parent="1" vertex="1">
          <mxGeometry y="470" width="240" height="290" as="geometry" />
        </mxCell>
        <mxCell id="78961159f06e98e8-21" value="&lt;span style=&quot;background-color:#ffffff;padding:0px 0px 0px 2px;&quot;&gt;&lt;span style=&quot;font-family: &amp;quot;Courier New&amp;quot;; font-size: 10pt; white-space: pre;&quot;&gt;&lt;span style=&quot;color:#7f0055;font-weight:bold;&quot;&gt;#include&lt;/span&gt; &lt;span style=&quot;color:#2a00ff;&quot;&gt;&quot;font.h&quot;&lt;/span&gt;&lt;/span&gt;&lt;/span&gt;" style="text;html=1;strokeColor=none;fillColor=none;align=left;verticalAlign=top;spacingLeft=4;spacingRight=4;whiteSpace=wrap;overflow=hidden;rotatable=0;points=[[0,0.5],[1,0.5]];portConstraint=eastwest;" parent="78961159f06e98e8-17" vertex="1">
          <mxGeometry y="26" width="240" height="26" as="geometry" />
        </mxCell>
        <mxCell id="78961159f06e98e8-23" value="&lt;span style=&quot;background-color:#ffffff;padding:0px 0px 0px 2px;&quot;&gt;&lt;span style=&quot;font-family: &amp;quot;Courier New&amp;quot;; font-size: 10pt; white-space: pre;&quot;&gt;&lt;span style=&quot;color:#7f0055;font-weight:bold;&quot;&gt;#include&lt;/span&gt; &lt;span style=&quot;color:#2a00ff;&quot;&gt;&quot;main.h&quot;&lt;/span&gt;&lt;/span&gt;&lt;/span&gt;" style="text;html=1;strokeColor=none;fillColor=none;align=left;verticalAlign=top;spacingLeft=4;spacingRight=4;whiteSpace=wrap;overflow=hidden;rotatable=0;points=[[0,0.5],[1,0.5]];portConstraint=eastwest;" parent="78961159f06e98e8-17" vertex="1">
          <mxGeometry y="52" width="240" height="26" as="geometry" />
        </mxCell>
        <mxCell id="78961159f06e98e8-25" value="&lt;span style=&quot;background-color:#ffffff;padding:0px 0px 0px 2px;&quot;&gt;&lt;span style=&quot;font-family: &amp;quot;Courier New&amp;quot;; font-size: 10pt; white-space: pre;&quot;&gt;&lt;span style=&quot;color:#7f0055;font-weight:bold;&quot;&gt;#include&lt;/span&gt; &lt;span style=&quot;color:#2a00ff;&quot;&gt;&quot;cg9a01.h&quot;&lt;/span&gt;&lt;/span&gt;&lt;/span&gt;" style="text;html=1;strokeColor=none;fillColor=none;align=left;verticalAlign=top;spacingLeft=4;spacingRight=4;whiteSpace=wrap;overflow=hidden;rotatable=0;points=[[0,0.5],[1,0.5]];portConstraint=eastwest;" parent="78961159f06e98e8-17" vertex="1">
          <mxGeometry y="78" width="240" height="26" as="geometry" />
        </mxCell>
        <mxCell id="78961159f06e98e8-19" value="" style="line;html=1;strokeWidth=1;fillColor=none;align=left;verticalAlign=middle;spacingTop=-1;spacingLeft=3;spacingRight=3;rotatable=0;labelPosition=right;points=[];portConstraint=eastwest;" parent="78961159f06e98e8-17" vertex="1">
          <mxGeometry y="104" width="240" height="8" as="geometry" />
        </mxCell>
        <mxCell id="78961159f06e98e8-20" value="&lt;div style=&quot;background-color:#ffffff;padding:0px 0px 0px 2px;&quot;&gt;&lt;div style=&quot;font-family: &amp;quot;Courier New&amp;quot;; font-size: 10pt; white-space: pre;&quot;&gt;&lt;p style=&quot;margin:0;&quot;&gt;&lt;span style=&quot;color:#7f0055;font-weight:bold;&quot;&gt;void&lt;/span&gt; &lt;span style=&quot;font-weight: bold;&quot;&gt;Write_Cmd&lt;/span&gt;(&lt;span style=&quot;color:#7f0055;font-weight:bold;&quot;&gt;unsigned&lt;/span&gt; &lt;span style=&quot;color:#7f0055;font-weight:bold;&quot;&gt;char&lt;/span&gt; CMD)&lt;/p&gt;&lt;p style=&quot;margin:0;&quot;&gt;{&lt;/p&gt;&lt;p style=&quot;margin:0;&quot;&gt;    LCD_CS_0;&lt;/p&gt;&lt;p style=&quot;margin:0;&quot;&gt;   &#x9;LCD_DC_0;&lt;/p&gt;&lt;p style=&quot;margin:0;&quot;&gt;&lt;br&gt;&lt;/p&gt;&lt;p style=&quot;margin:0;&quot;&gt;   &#x9;SPI_Write(&amp;amp;CMD, 1);&lt;/p&gt;&lt;p style=&quot;margin:0;&quot;&gt;&lt;br&gt;&lt;/p&gt;&lt;p style=&quot;margin:0;&quot;&gt;   &#x9;LCD_CS_1;&lt;/p&gt;&lt;p style=&quot;margin:0;&quot;&gt;}&lt;/p&gt;&lt;p style=&quot;margin:0;&quot;&gt;...&lt;/p&gt;&lt;/div&gt;&lt;/div&gt;" style="text;html=1;strokeColor=none;fillColor=none;align=left;verticalAlign=top;spacingLeft=4;spacingRight=4;whiteSpace=wrap;overflow=hidden;rotatable=0;points=[[0,0.5],[1,0.5]];portConstraint=eastwest;" parent="78961159f06e98e8-17" vertex="1">
          <mxGeometry y="112" width="240" height="178" as="geometry" />
        </mxCell>
        <mxCell id="78961159f06e98e8-30" value="main.c" style="swimlane;html=1;fontStyle=1;align=center;verticalAlign=top;childLayout=stackLayout;horizontal=1;startSize=26;horizontalStack=0;resizeParent=1;resizeLast=0;collapsible=1;marginBottom=0;swimlaneFillColor=#ffffff;rounded=0;shadow=0;comic=0;labelBackgroundColor=none;strokeWidth=1;fillColor=none;fontFamily=Verdana;fontSize=12" parent="1" vertex="1">
          <mxGeometry y="30" width="260" height="287" as="geometry" />
        </mxCell>
        <mxCell id="78961159f06e98e8-31" value="&lt;span style=&quot;background-color:#ffffff;padding:0px 0px 0px 2px;&quot;&gt;&lt;span style=&quot;font-family: &amp;quot;Courier New&amp;quot;; font-size: 10pt; white-space: pre;&quot;&gt;&lt;span style=&quot;color:#7f0055;font-weight:bold;&quot;&gt;#include&lt;/span&gt; &lt;span style=&quot;color:#2a00ff;&quot;&gt;&quot;main.h&quot;&lt;/span&gt;&lt;/span&gt;&lt;/span&gt;" style="text;html=1;strokeColor=none;fillColor=none;align=left;verticalAlign=top;spacingLeft=4;spacingRight=4;whiteSpace=wrap;overflow=hidden;rotatable=0;points=[[0,0.5],[1,0.5]];portConstraint=eastwest;" parent="78961159f06e98e8-30" vertex="1">
          <mxGeometry y="26" width="260" height="26" as="geometry" />
        </mxCell>
        <mxCell id="78961159f06e98e8-32" value="&lt;span style=&quot;font-family: &amp;quot;Courier New&amp;quot;; font-size: 13.3333px; white-space: pre; background-color: rgb(255, 255, 255); color: rgb(127, 0, 85); font-weight: bold;&quot;&gt;#include&lt;/span&gt;&lt;span style=&quot;font-family: &amp;quot;Courier New&amp;quot;; font-size: 13.3333px; white-space: pre; background-color: rgb(255, 255, 255);&quot;&gt; &lt;/span&gt;&lt;span style=&quot;font-family: &amp;quot;Courier New&amp;quot;; font-size: 13.3333px; white-space: pre; background-color: rgb(255, 255, 255); color: rgb(42, 0, 255);&quot;&gt;&quot;cg9a01.h&quot;&lt;/span&gt;" style="text;html=1;strokeColor=none;fillColor=none;align=left;verticalAlign=top;spacingLeft=4;spacingRight=4;whiteSpace=wrap;overflow=hidden;rotatable=0;points=[[0,0.5],[1,0.5]];portConstraint=eastwest;" parent="78961159f06e98e8-30" vertex="1">
          <mxGeometry y="52" width="260" height="26" as="geometry" />
        </mxCell>
        <mxCell id="78961159f06e98e8-33" value="&lt;span style=&quot;background-color:#ffffff;padding:0px 0px 0px 2px;&quot;&gt;&lt;span style=&quot;font-family: &amp;quot;Courier New&amp;quot;; font-size: 10pt; white-space: pre;&quot;&gt;&lt;span style=&quot;color:#7f0055;font-weight:bold;&quot;&gt;#include&lt;/span&gt; &lt;span style=&quot;color:#2a00ff;&quot;&gt;&amp;lt;stdio.h&amp;gt;&lt;/span&gt;&lt;/span&gt;&lt;/span&gt;" style="text;html=1;strokeColor=none;fillColor=none;align=left;verticalAlign=top;spacingLeft=4;spacingRight=4;whiteSpace=wrap;overflow=hidden;rotatable=0;points=[[0,0.5],[1,0.5]];portConstraint=eastwest;" parent="78961159f06e98e8-30" vertex="1">
          <mxGeometry y="78" width="260" height="26" as="geometry" />
        </mxCell>
        <mxCell id="78961159f06e98e8-38" value="" style="line;html=1;strokeWidth=1;fillColor=none;align=left;verticalAlign=middle;spacingTop=-1;spacingLeft=3;spacingRight=3;rotatable=0;labelPosition=right;points=[];portConstraint=eastwest;" parent="78961159f06e98e8-30" vertex="1">
          <mxGeometry y="104" width="260" height="8" as="geometry" />
        </mxCell>
        <mxCell id="78961159f06e98e8-39" value="&lt;div style=&quot;background-color:#ffffff;padding:0px 0px 0px 2px;&quot;&gt;&lt;div style=&quot;font-family: &amp;quot;Courier New&amp;quot;; font-size: 10pt; white-space: pre;&quot;&gt;&lt;p style=&quot;margin:0;&quot;&gt;&lt;span style=&quot;color:#7f0055;font-weight:bold;&quot;&gt;void&lt;/span&gt; &lt;span style=&quot;font-weight: bold;&quot;&gt;SystemClock_Config&lt;/span&gt;(&lt;span style=&quot;color:#7f0055;font-weight:bold;&quot;&gt;void&lt;/span&gt;);&lt;/p&gt;&lt;p style=&quot;margin:0;&quot;&gt;&lt;span style=&quot;color:#7f0055;font-weight:bold;&quot;&gt;static&lt;/span&gt; &lt;span style=&quot;color:#7f0055;font-weight:bold;&quot;&gt;void&lt;/span&gt; &lt;span style=&quot;font-weight: bold;&quot;&gt;MX_GPIO_Init&lt;/span&gt;(&lt;span style=&quot;color:#7f0055;font-weight:bold;&quot;&gt;void&lt;/span&gt;);&lt;/p&gt;&lt;p style=&quot;margin:0;&quot;&gt;&lt;span style=&quot;color:#7f0055;font-weight:bold;&quot;&gt;static&lt;/span&gt; &lt;span style=&quot;color:#7f0055;font-weight:bold;&quot;&gt;void&lt;/span&gt; &lt;span style=&quot;font-weight: bold;&quot;&gt;MX_DMA_Init&lt;/span&gt;(&lt;span style=&quot;color:#7f0055;font-weight:bold;&quot;&gt;void&lt;/span&gt;);&lt;/p&gt;&lt;p style=&quot;margin:0;&quot;&gt;&lt;span style=&quot;color:#7f0055;font-weight:bold;&quot;&gt;static&lt;/span&gt; &lt;span style=&quot;color:#7f0055;font-weight:bold;&quot;&gt;void&lt;/span&gt; &lt;span style=&quot;font-weight: bold;&quot;&gt;MX_SPI1_Init&lt;/span&gt;(&lt;span style=&quot;color:#7f0055;font-weight:bold;&quot;&gt;void&lt;/span&gt;);&lt;/p&gt;&lt;p style=&quot;margin:0;&quot;&gt;&lt;span style=&quot;color:#7f0055;font-weight:bold;&quot;&gt;static&lt;/span&gt; &lt;span style=&quot;color:#7f0055;font-weight:bold;&quot;&gt;void&lt;/span&gt; &lt;span style=&quot;font-weight: bold;&quot;&gt;MX_RTC_Init&lt;/span&gt;(&lt;span style=&quot;color:#7f0055;font-weight:bold;&quot;&gt;void&lt;/span&gt;);&lt;/p&gt;&lt;p style=&quot;margin:0;&quot;&gt;&lt;span style=&quot;color:#7f0055;font-weight:bold;&quot;&gt;static&lt;/span&gt; &lt;span style=&quot;color:#7f0055;font-weight:bold;&quot;&gt;void&lt;/span&gt; &lt;span style=&quot;font-weight: bold;&quot;&gt;MX_TIM4_Init&lt;/span&gt;(&lt;span style=&quot;color:#7f0055;font-weight:bold;&quot;&gt;void&lt;/span&gt;);&lt;/p&gt;&lt;p style=&quot;margin:0;&quot;&gt;&lt;span style=&quot;color:#7f0055;font-weight:bold;&quot;&gt;static&lt;/span&gt; &lt;span style=&quot;color:#7f0055;font-weight:bold;&quot;&gt;void&lt;/span&gt; &lt;span style=&quot;font-weight: bold;&quot;&gt;MX_TIM1_Init&lt;/span&gt;(&lt;span style=&quot;color:#7f0055;font-weight:bold;&quot;&gt;void&lt;/span&gt;);&lt;/p&gt;&lt;p style=&quot;margin:0;&quot;&gt;&lt;span style=&quot;color:#7f0055;font-weight:bold;&quot;&gt;static&lt;/span&gt; &lt;span style=&quot;color:#7f0055;font-weight:bold;&quot;&gt;void&lt;/span&gt; &lt;span style=&quot;font-weight: bold;&quot;&gt;MX_ADC1_Init&lt;/span&gt;(&lt;span style=&quot;color:#7f0055;font-weight:bold;&quot;&gt;void&lt;/span&gt;);&lt;/p&gt;&lt;p style=&quot;margin:0;&quot;&gt;...&lt;/p&gt;&lt;/div&gt;&lt;/div&gt;" style="text;html=1;strokeColor=none;fillColor=none;align=left;verticalAlign=top;spacingLeft=4;spacingRight=4;whiteSpace=wrap;overflow=hidden;rotatable=0;points=[[0,0.5],[1,0.5]];portConstraint=eastwest;" parent="78961159f06e98e8-30" vertex="1">
          <mxGeometry y="112" width="260" height="138" as="geometry" />
        </mxCell>
        <mxCell id="78961159f06e98e8-56" value="&lt;span style=&quot;background-color:#ffffff;padding:0px 0px 0px 2px;&quot;&gt;&lt;span style=&quot;font-family: &amp;quot;Courier New&amp;quot;; font-size: 10pt; white-space-collapse: preserve;&quot;&gt;&lt;span style=&quot;color:#2a00ff;&quot;&gt;stm32f4xx_hal.h&lt;/span&gt;&lt;/span&gt;&lt;/span&gt;" style="swimlane;html=1;fontStyle=1;align=center;verticalAlign=top;childLayout=stackLayout;horizontal=1;startSize=26;horizontalStack=0;resizeParent=1;resizeLast=0;collapsible=1;marginBottom=0;swimlaneFillColor=#ffffff;rounded=0;shadow=0;comic=0;labelBackgroundColor=none;strokeWidth=1;fillColor=none;fontFamily=Verdana;fontSize=12" parent="1" vertex="1">
          <mxGeometry x="1020" y="300" width="300" height="210" as="geometry" />
        </mxCell>
        <mxCell id="78961159f06e98e8-57" value="&lt;span style=&quot;font-family: &amp;quot;Courier New&amp;quot;; font-size: 13.3333px; white-space: pre; background-color: rgb(255, 255, 255); color: rgb(127, 0, 85); font-weight: bold;&quot;&gt;#include&lt;/span&gt;&lt;span style=&quot;font-family: &amp;quot;Courier New&amp;quot;; font-size: 13.3333px; white-space: pre; background-color: rgb(255, 255, 255);&quot;&gt; &lt;/span&gt;&lt;span style=&quot;font-family: &amp;quot;Courier New&amp;quot;; font-size: 13.3333px; white-space: pre; background-color: rgb(255, 255, 255); color: rgb(42, 0, 255);&quot;&gt;&quot;&lt;/span&gt;&lt;span style=&quot;background-color:#ffffff;padding:0px 0px 0px 2px;&quot;&gt;&lt;span style=&quot;font-family: &amp;quot;Courier New&amp;quot;; font-size: 10pt; white-space: pre;&quot;&gt;&lt;span style=&quot;color:#2a00ff;&quot;&gt;stm32f4xx_hal_conf.h&lt;/span&gt;&lt;/span&gt;&lt;/span&gt;&lt;span style=&quot;font-family: &amp;quot;Courier New&amp;quot;; font-size: 13.3333px; white-space: pre; background-color: rgb(255, 255, 255); color: rgb(42, 0, 255);&quot;&gt;&quot;&lt;/span&gt;&lt;br&gt;&lt;div style=&quot;background-color:#ffffff;padding:0px 0px 0px 2px;&quot;&gt;&lt;div style=&quot;font-family: &amp;quot;Courier New&amp;quot;; font-size: 10pt; white-space: pre;&quot;&gt;&lt;p style=&quot;margin:0;&quot;&gt;&lt;/p&gt;&lt;/div&gt;&lt;/div&gt;" style="text;html=1;strokeColor=none;fillColor=none;align=left;verticalAlign=top;spacingLeft=4;spacingRight=4;whiteSpace=wrap;overflow=hidden;rotatable=0;points=[[0,0.5],[1,0.5]];portConstraint=eastwest;" parent="78961159f06e98e8-56" vertex="1">
          <mxGeometry y="26" width="300" height="26" as="geometry" />
        </mxCell>
        <mxCell id="78961159f06e98e8-64" value="" style="line;html=1;strokeWidth=1;fillColor=none;align=left;verticalAlign=middle;spacingTop=-1;spacingLeft=3;spacingRight=3;rotatable=0;labelPosition=right;points=[];portConstraint=eastwest;" parent="78961159f06e98e8-56" vertex="1">
          <mxGeometry y="52" width="300" height="8" as="geometry" />
        </mxCell>
        <mxCell id="78961159f06e98e8-65" value="&lt;div style=&quot;background-color:#ffffff;padding:0px 0px 0px 2px;&quot;&gt;&lt;div style=&quot;font-family: &amp;quot;Courier New&amp;quot;; font-size: 10pt; white-space: pre;&quot;&gt;&lt;p style=&quot;margin:0;&quot;&gt;&lt;span style=&quot;color:#7f0055;font-weight:bold;&quot;&gt;#define&lt;/span&gt; __HAL_DBGMCU_FREEZE_TIM2()           (DBGMCU-&amp;gt;APB1FZ |= (DBGMCU_APB1_FZ_DBG_TIM2_STOP))&lt;/p&gt;&lt;p style=&quot;margin:0;&quot;&gt;&lt;span style=&quot;color:#7f0055;font-weight:bold;&quot;&gt;#define&lt;/span&gt; __HAL_DBGMCU_FREEZE_TIM3()           (DBGMCU-&amp;gt;APB1FZ |= (DBGMCU_APB1_FZ_DBG_TIM3_STOP))&lt;/p&gt;&lt;p style=&quot;margin:0;&quot;&gt;&lt;span style=&quot;color:#7f0055;font-weight:bold;&quot;&gt;#define&lt;/span&gt; __HAL_DBGMCU_FREEZE_TIM4()           (DBGMCU-&amp;gt;APB1FZ |= (DBGMCU_APB1_FZ_DBG_TIM4_STOP))&lt;/p&gt;&lt;p style=&quot;margin:0;&quot;&gt;&lt;span style=&quot;color:#7f0055;font-weight:bold;&quot;&gt;#define&lt;/span&gt; __HAL_DBGMCU_FREEZE_TIM5()           (DBGMCU-&amp;gt;APB1FZ |= (DBGMCU_APB1_FZ_DBG_TIM5_STOP))&lt;/p&gt;&lt;p style=&quot;margin:0;&quot;&gt;&lt;span style=&quot;color:#7f0055;font-weight:bold;&quot;&gt;#define&lt;/span&gt; __HAL_DBGMCU_FREEZE_TIM6()           (DBGMCU-&amp;gt;APB1FZ |= (DBGMCU_APB1_FZ_DBG_TIM6_STOP))&lt;/p&gt;&lt;p style=&quot;margin:0;&quot;&gt;&lt;span style=&quot;color:#7f0055;font-weight:bold;&quot;&gt;#define&lt;/span&gt; __HAL_DBGMCU_FREEZE_TIM7()           (DBGMCU-&amp;gt;APB1FZ |= (DBGMCU_APB1_FZ_DBG_TIM7_STOP))&lt;/p&gt;&lt;p style=&quot;margin:0;&quot;&gt;&lt;span style=&quot;color:#7f0055;font-weight:bold;&quot;&gt;#define&lt;/span&gt; __HAL_DBGMCU_FREEZE_TIM12()          (DBGMCU-&amp;gt;APB1FZ |= (DBGMCU_APB1_FZ_DBG_TIM12_STOP))&lt;/p&gt;&lt;p style=&quot;margin:0;&quot;&gt;...&lt;/p&gt;&lt;/div&gt;&lt;/div&gt;" style="text;html=1;strokeColor=none;fillColor=none;align=left;verticalAlign=top;spacingLeft=4;spacingRight=4;whiteSpace=wrap;overflow=hidden;rotatable=0;points=[[0,0.5],[1,0.5]];portConstraint=eastwest;" parent="78961159f06e98e8-56" vertex="1">
          <mxGeometry y="60" width="300" height="150" as="geometry" />
        </mxCell>
        <mxCell id="6ayFiNfjoUgFsHISApw_-5" value="" style="endArrow=classic;startArrow=classic;html=1;rounded=0;" parent="1" edge="1">
          <mxGeometry width="50" height="50" relative="1" as="geometry">
            <mxPoint x="240" y="550" as="sourcePoint" />
            <mxPoint x="470" y="190" as="targetPoint" />
          </mxGeometry>
        </mxCell>
        <mxCell id="6ayFiNfjoUgFsHISApw_-6" value="" style="endArrow=classic;startArrow=classic;html=1;rounded=0;" parent="1" edge="1">
          <mxGeometry width="50" height="50" relative="1" as="geometry">
            <mxPoint x="270" y="140" as="sourcePoint" />
            <mxPoint x="460" y="140" as="targetPoint" />
          </mxGeometry>
        </mxCell>
        <mxCell id="6ayFiNfjoUgFsHISApw_-7" value="" style="endArrow=classic;startArrow=classic;html=1;rounded=0;" parent="1" edge="1">
          <mxGeometry width="50" height="50" relative="1" as="geometry">
            <mxPoint x="240" y="570" as="sourcePoint" />
            <mxPoint x="460" y="380" as="targetPoint" />
          </mxGeometry>
        </mxCell>
        <mxCell id="6ayFiNfjoUgFsHISApw_-8" value="" style="endArrow=classic;startArrow=classic;html=1;rounded=0;" parent="1" edge="1">
          <mxGeometry width="50" height="50" relative="1" as="geometry">
            <mxPoint x="270" y="170" as="sourcePoint" />
            <mxPoint x="460" y="360" as="targetPoint" />
          </mxGeometry>
        </mxCell>
        <mxCell id="6ayFiNfjoUgFsHISApw_-9" value="" style="endArrow=classic;startArrow=classic;html=1;rounded=0;" parent="1" edge="1">
          <mxGeometry width="50" height="50" relative="1" as="geometry">
            <mxPoint x="240" y="590" as="sourcePoint" />
            <mxPoint x="480" y="620" as="targetPoint" />
          </mxGeometry>
        </mxCell>
        <mxCell id="6ayFiNfjoUgFsHISApw_-19" value="main.h" style="swimlane;html=1;fontStyle=1;align=center;verticalAlign=top;childLayout=stackLayout;horizontal=1;startSize=26;horizontalStack=0;resizeParent=1;resizeLast=0;collapsible=1;marginBottom=0;swimlaneFillColor=#ffffff;rounded=0;shadow=0;comic=0;labelBackgroundColor=none;strokeWidth=1;fillColor=none;fontFamily=Verdana;fontSize=12" parent="1" vertex="1">
          <mxGeometry x="490" y="60" width="275" height="200" as="geometry" />
        </mxCell>
        <mxCell id="6ayFiNfjoUgFsHISApw_-20" value="&lt;span style=&quot;background-color:#ffffff;padding:0px 0px 0px 2px;&quot;&gt;&lt;span style=&quot;font-family: &amp;quot;Courier New&amp;quot;; font-size: 10pt; white-space: pre;&quot;&gt;&lt;span style=&quot;color:#7f0055;font-weight:bold;&quot;&gt;#include&lt;/span&gt; &lt;span style=&quot;color:#2a00ff;&quot;&gt;&quot;stm32f4xx_hal.h&quot;&lt;/span&gt;&lt;/span&gt;&lt;/span&gt;" style="text;html=1;strokeColor=none;fillColor=none;align=left;verticalAlign=top;spacingLeft=4;spacingRight=4;whiteSpace=wrap;overflow=hidden;rotatable=0;points=[[0,0.5],[1,0.5]];portConstraint=eastwest;" parent="6ayFiNfjoUgFsHISApw_-19" vertex="1">
          <mxGeometry y="26" width="275" height="26" as="geometry" />
        </mxCell>
        <mxCell id="6ayFiNfjoUgFsHISApw_-24" value="" style="line;html=1;strokeWidth=1;fillColor=none;align=left;verticalAlign=middle;spacingTop=-1;spacingLeft=3;spacingRight=3;rotatable=0;labelPosition=right;points=[];portConstraint=eastwest;" parent="6ayFiNfjoUgFsHISApw_-19" vertex="1">
          <mxGeometry y="52" width="275" height="8" as="geometry" />
        </mxCell>
        <mxCell id="6ayFiNfjoUgFsHISApw_-25" value="&lt;div style=&quot;background-color:#ffffff;padding:0px 0px 0px 2px;&quot;&gt;&lt;div style=&quot;font-family: &amp;quot;Courier New&amp;quot;; font-size: 10pt; white-space: pre;&quot;&gt;&lt;p style=&quot;margin:0;&quot;&gt;&lt;span style=&quot;color:#7f0055;font-weight:bold;&quot;&gt;#define&lt;/span&gt; LCD_CS_Pin GPIO_PIN_0&lt;/p&gt;&lt;p style=&quot;margin:0;&quot;&gt;&lt;span style=&quot;color:#7f0055;font-weight:bold;&quot;&gt;#define&lt;/span&gt; LCD_CS_GPIO_Port GPIOB&lt;/p&gt;&lt;p style=&quot;margin:0;&quot;&gt;&lt;span style=&quot;color:#7f0055;font-weight:bold;&quot;&gt;#define&lt;/span&gt; LCD_RST_Pin GPIO_PIN_1&lt;/p&gt;&lt;p style=&quot;margin:0;&quot;&gt;&lt;span style=&quot;color:#7f0055;font-weight:bold;&quot;&gt;#define&lt;/span&gt; LCD_RST_GPIO_Port GPIOB&lt;/p&gt;&lt;p style=&quot;margin:0;&quot;&gt;&lt;span style=&quot;color:#7f0055;font-weight:bold;&quot;&gt;#define&lt;/span&gt; LCD_DC_Pin GPIO_PIN_2&lt;/p&gt;&lt;div style=&quot;padding: 0px 0px 0px 2px;&quot;&gt;&lt;div style=&quot;font-size: 10pt;&quot;&gt;&lt;p style=&quot;margin:0;&quot;&gt;&lt;span style=&quot;color:#7f0055;font-weight:bold;&quot;&gt;#define&lt;/span&gt; LCD_DC_GPIO_Port GPIOB&lt;/p&gt;&lt;p style=&quot;margin:0;&quot;&gt;&lt;span style=&quot;color:#7f0055;font-weight:bold;&quot;&gt;#define&lt;/span&gt; Trigger_Pin GPIO_PIN_8&lt;/p&gt;&lt;p style=&quot;margin:0;&quot;&gt;...&lt;/p&gt;&lt;p style=&quot;margin:0;&quot;&gt;&lt;/p&gt;&lt;/div&gt;&lt;/div&gt;&lt;/div&gt;&lt;/div&gt;" style="text;html=1;strokeColor=none;fillColor=none;align=left;verticalAlign=top;spacingLeft=4;spacingRight=4;whiteSpace=wrap;overflow=hidden;rotatable=0;points=[[0,0.5],[1,0.5]];portConstraint=eastwest;" parent="6ayFiNfjoUgFsHISApw_-19" vertex="1">
          <mxGeometry y="60" width="275" height="140" as="geometry" />
        </mxCell>
        <mxCell id="6ayFiNfjoUgFsHISApw_-27" value="cg9a01.h" style="swimlane;html=1;fontStyle=1;align=center;verticalAlign=top;childLayout=stackLayout;horizontal=1;startSize=26;horizontalStack=0;resizeParent=1;resizeLast=0;collapsible=1;marginBottom=0;swimlaneFillColor=#ffffff;rounded=0;shadow=0;comic=0;labelBackgroundColor=none;strokeWidth=1;fillColor=none;fontFamily=Verdana;fontSize=12" parent="1" vertex="1">
          <mxGeometry x="490" y="310" width="230" height="190" as="geometry" />
        </mxCell>
        <mxCell id="6ayFiNfjoUgFsHISApw_-28" value="&lt;span style=&quot;background-color:#ffffff;padding:0px 0px 0px 2px;&quot;&gt;&lt;span style=&quot;font-family: &amp;quot;Courier New&amp;quot;; font-size: 10pt; white-space: pre;&quot;&gt;&lt;span style=&quot;color:#7f0055;font-weight:bold;&quot;&gt;#include&lt;/span&gt; &lt;span style=&quot;color:#2a00ff;&quot;&gt;&quot;main.h&quot;&lt;/span&gt;&lt;/span&gt;&lt;/span&gt;" style="text;html=1;strokeColor=none;fillColor=none;align=left;verticalAlign=top;spacingLeft=4;spacingRight=4;whiteSpace=wrap;overflow=hidden;rotatable=0;points=[[0,0.5],[1,0.5]];portConstraint=eastwest;" parent="6ayFiNfjoUgFsHISApw_-27" vertex="1">
          <mxGeometry y="26" width="230" height="26" as="geometry" />
        </mxCell>
        <mxCell id="6ayFiNfjoUgFsHISApw_-32" value="" style="line;html=1;strokeWidth=1;fillColor=none;align=left;verticalAlign=middle;spacingTop=-1;spacingLeft=3;spacingRight=3;rotatable=0;labelPosition=right;points=[];portConstraint=eastwest;" parent="6ayFiNfjoUgFsHISApw_-27" vertex="1">
          <mxGeometry y="52" width="230" height="8" as="geometry" />
        </mxCell>
        <mxCell id="6ayFiNfjoUgFsHISApw_-33" value="&lt;span style=&quot;background-color:#ffffff;padding:0px 0px 0px 2px;&quot;&gt;&lt;span style=&quot;font-family: &amp;quot;Courier New&amp;quot;; font-size: 10pt; white-space: pre;&quot;&gt;&lt;span style=&quot;color:#7f0055;font-weight:bold;&quot;&gt;void&lt;/span&gt; &lt;span style=&quot;font-weight: bold;&quot;&gt;GC9A01_Initial&lt;/span&gt;(&lt;span style=&quot;color:#7f0055;font-weight:bold;&quot;&gt;void&lt;/span&gt;);&lt;/span&gt;&lt;/span&gt;" style="text;html=1;strokeColor=none;fillColor=none;align=left;verticalAlign=top;spacingLeft=4;spacingRight=4;whiteSpace=wrap;overflow=hidden;rotatable=0;points=[[0,0.5],[1,0.5]];portConstraint=eastwest;" parent="6ayFiNfjoUgFsHISApw_-27" vertex="1">
          <mxGeometry y="60" width="230" height="26" as="geometry" />
        </mxCell>
        <mxCell id="6ayFiNfjoUgFsHISApw_-34" value="&lt;span style=&quot;background-color:#ffffff;padding:0px 0px 0px 2px;&quot;&gt;&lt;span style=&quot;font-family: &amp;quot;Courier New&amp;quot;; font-size: 10pt; white-space: pre;&quot;&gt;&lt;span style=&quot;color: rgb(127, 0, 85); font-weight: bold; text-decoration-line: underline; text-decoration-color: rgb(130, 160, 190); text-decoration-style: wavy;&quot;&gt;void&lt;/span&gt;&lt;span style=&quot;text-decoration-line: underline; text-decoration-color: rgb(130, 160, 190); text-decoration-style: wavy;&quot;&gt; &lt;/span&gt;&lt;span style=&quot;font-weight: bold; text-decoration-line: underline; text-decoration-color: rgb(130, 160, 190); text-decoration-style: wavy;&quot;&gt;showzifustr();&lt;/span&gt;&lt;/span&gt;&lt;/span&gt;&lt;div&gt;&lt;span style=&quot;background-color:#ffffff;padding:0px 0px 0px 2px;&quot;&gt;&lt;span style=&quot;font-family: &amp;quot;Courier New&amp;quot;; font-size: 10pt; white-space: pre;&quot;&gt;&lt;span style=&quot;font-weight: bold; text-decoration-line: underline; text-decoration-color: rgb(130, 160, 190); text-decoration-style: wavy;&quot;&gt;&lt;br&gt;&lt;/span&gt;&lt;/span&gt;&lt;/span&gt;&lt;/div&gt;" style="text;html=1;strokeColor=none;fillColor=none;align=left;verticalAlign=top;spacingLeft=4;spacingRight=4;whiteSpace=wrap;overflow=hidden;rotatable=0;points=[[0,0.5],[1,0.5]];portConstraint=eastwest;" parent="6ayFiNfjoUgFsHISApw_-27" vertex="1">
          <mxGeometry y="86" width="230" height="26" as="geometry" />
        </mxCell>
        <mxCell id="6ayFiNfjoUgFsHISApw_-45" value="&lt;div&gt;&lt;span style=&quot;background-color:#ffffff;padding:0px 0px 0px 2px;&quot;&gt;&lt;span style=&quot;padding: 0px 0px 0px 2px;&quot;&gt;&lt;span style=&quot;font-family: &amp;quot;Courier New&amp;quot;; font-size: 10pt; white-space: pre;&quot;&gt;&lt;span style=&quot;color:#7f0055;font-weight:bold;&quot;&gt;void&lt;/span&gt; &lt;span style=&quot;font-weight: bold;&quot;&gt;inversPicData1a&lt;/span&gt;(&lt;span style=&quot;color:#7f0055;font-weight:bold;&quot;&gt;void&lt;/span&gt;);&lt;/span&gt;&lt;/span&gt;&lt;span style=&quot;font-family: &amp;quot;Courier New&amp;quot;; font-size: 10pt; white-space: pre;&quot;&gt;&lt;span style=&quot;font-weight: bold; text-decoration-line: underline; text-decoration-color: rgb(130, 160, 190); text-decoration-style: wavy;&quot;&gt;&lt;br&gt;&lt;/span&gt;&lt;/span&gt;&lt;/span&gt;&lt;/div&gt;" style="text;html=1;strokeColor=none;fillColor=none;align=left;verticalAlign=top;spacingLeft=4;spacingRight=4;whiteSpace=wrap;overflow=hidden;rotatable=0;points=[[0,0.5],[1,0.5]];portConstraint=eastwest;" parent="6ayFiNfjoUgFsHISApw_-27" vertex="1">
          <mxGeometry y="112" width="230" height="26" as="geometry" />
        </mxCell>
        <mxCell id="6ayFiNfjoUgFsHISApw_-47" value="&lt;div&gt;&lt;span style=&quot;background-color:#ffffff;padding:0px 0px 0px 2px;&quot;&gt;&lt;span style=&quot;padding: 0px 0px 0px 2px;&quot;&gt;&lt;span style=&quot;font-family: &amp;quot;Courier New&amp;quot;; font-size: 10pt; white-space: pre;&quot;&gt;&lt;span style=&quot;color:#7f0055;font-weight:bold;&quot;&gt;void&lt;/span&gt; &lt;span style=&quot;font-weight: bold;&quot;&gt;LCD_DrawRectangle&lt;/span&gt;();&lt;/span&gt;&lt;/span&gt;&lt;span style=&quot;font-family: &amp;quot;Courier New&amp;quot;; font-size: 10pt; white-space: pre;&quot;&gt;&lt;span style=&quot;font-weight: bold; text-decoration-line: underline; text-decoration-color: rgb(130, 160, 190); text-decoration-style: wavy;&quot;&gt;&lt;br&gt;&lt;/span&gt;&lt;/span&gt;&lt;/span&gt;&lt;/div&gt;" style="text;html=1;strokeColor=none;fillColor=none;align=left;verticalAlign=top;spacingLeft=4;spacingRight=4;whiteSpace=wrap;overflow=hidden;rotatable=0;points=[[0,0.5],[1,0.5]];portConstraint=eastwest;" parent="6ayFiNfjoUgFsHISApw_-27" vertex="1">
          <mxGeometry y="138" width="230" height="26" as="geometry" />
        </mxCell>
        <mxCell id="6ayFiNfjoUgFsHISApw_-55" value="&lt;div&gt;&lt;span style=&quot;background-color:#ffffff;padding:0px 0px 0px 2px;&quot;&gt;&lt;span style=&quot;font-family: &amp;quot;Courier New&amp;quot;; font-size: 10pt; white-space: pre;&quot;&gt;&lt;span style=&quot;font-weight: bold; text-decoration-line: underline; text-decoration-color: rgb(130, 160, 190); text-decoration-style: wavy;&quot;&gt;&lt;font color=&quot;#7f0055&quot;&gt;...&lt;/font&gt;&lt;/span&gt;&lt;/span&gt;&lt;/span&gt;&lt;/div&gt;" style="text;html=1;strokeColor=none;fillColor=none;align=left;verticalAlign=top;spacingLeft=4;spacingRight=4;whiteSpace=wrap;overflow=hidden;rotatable=0;points=[[0,0.5],[1,0.5]];portConstraint=eastwest;" parent="6ayFiNfjoUgFsHISApw_-27" vertex="1">
          <mxGeometry y="164" width="230" height="26" as="geometry" />
        </mxCell>
        <mxCell id="6ayFiNfjoUgFsHISApw_-35" value="font.h" style="swimlane;html=1;fontStyle=1;align=center;verticalAlign=top;childLayout=stackLayout;horizontal=1;startSize=26;horizontalStack=0;resizeParent=1;resizeLast=0;collapsible=1;marginBottom=0;swimlaneFillColor=#ffffff;rounded=0;shadow=0;comic=0;labelBackgroundColor=none;strokeWidth=1;fillColor=none;fontFamily=Verdana;fontSize=12" parent="1" vertex="1">
          <mxGeometry x="490" y="570" width="220" height="140" as="geometry" />
        </mxCell>
        <mxCell id="6ayFiNfjoUgFsHISApw_-41" value="&lt;span style=&quot;background-color:#ffffff;padding:0px 0px 0px 2px;&quot;&gt;&lt;span style=&quot;font-family: &amp;quot;Courier New&amp;quot;; font-size: 10pt; white-space: pre;&quot;&gt;String6_12[]&lt;/span&gt;&lt;/span&gt;" style="text;html=1;strokeColor=none;fillColor=none;align=left;verticalAlign=top;spacingLeft=4;spacingRight=4;whiteSpace=wrap;overflow=hidden;rotatable=0;points=[[0,0.5],[1,0.5]];portConstraint=eastwest;" parent="6ayFiNfjoUgFsHISApw_-35" vertex="1">
          <mxGeometry y="26" width="220" height="26" as="geometry" />
        </mxCell>
        <mxCell id="6ayFiNfjoUgFsHISApw_-42" value="&lt;span style=&quot;background-color:#ffffff;padding:0px 0px 0px 2px;&quot;&gt;&lt;span style=&quot;font-family: &amp;quot;Courier New&amp;quot;; font-size: 10pt; white-space: pre;&quot;&gt;pic1[]={..}&lt;/span&gt;&lt;/span&gt;" style="text;html=1;strokeColor=none;fillColor=none;align=left;verticalAlign=top;spacingLeft=4;spacingRight=4;whiteSpace=wrap;overflow=hidden;rotatable=0;points=[[0,0.5],[1,0.5]];portConstraint=eastwest;" parent="6ayFiNfjoUgFsHISApw_-35" vertex="1">
          <mxGeometry y="52" width="220" height="26" as="geometry" />
        </mxCell>
        <mxCell id="6ayFiNfjoUgFsHISApw_-43" value="&lt;span style=&quot;background-color:#ffffff;padding:0px 0px 0px 2px;&quot;&gt;&lt;span style=&quot;font-family: &amp;quot;Courier New&amp;quot;; font-size: 10pt; white-space: pre;&quot;&gt;pic2[]={..}&lt;/span&gt;&lt;/span&gt;" style="text;html=1;strokeColor=none;fillColor=none;align=left;verticalAlign=top;spacingLeft=4;spacingRight=4;whiteSpace=wrap;overflow=hidden;rotatable=0;points=[[0,0.5],[1,0.5]];portConstraint=eastwest;" parent="6ayFiNfjoUgFsHISApw_-35" vertex="1">
          <mxGeometry y="78" width="220" height="26" as="geometry" />
        </mxCell>
        <mxCell id="6ayFiNfjoUgFsHISApw_-44" value="&lt;span style=&quot;background-color:#ffffff;padding:0px 0px 0px 2px;&quot;&gt;&lt;span style=&quot;font-family: &amp;quot;Courier New&amp;quot;; font-size: 10pt; white-space: pre;&quot;&gt;pic3[]={..}&lt;/span&gt;&lt;/span&gt;" style="text;html=1;strokeColor=none;fillColor=none;align=left;verticalAlign=top;spacingLeft=4;spacingRight=4;whiteSpace=wrap;overflow=hidden;rotatable=0;points=[[0,0.5],[1,0.5]];portConstraint=eastwest;" parent="6ayFiNfjoUgFsHISApw_-35" vertex="1">
          <mxGeometry y="104" width="220" height="26" as="geometry" />
        </mxCell>
        <mxCell id="6ayFiNfjoUgFsHISApw_-57" value="&lt;span style=&quot;color: rgb(42, 0, 255); font-family: &amp;quot;Courier New&amp;quot;; font-size: 13.3333px; font-weight: 400; text-align: left; white-space-collapse: preserve; background-color: rgb(255, 255, 255);&quot;&gt;stm32f4xx_hal_conf.h&lt;/span&gt;" style="swimlane;html=1;fontStyle=1;align=center;verticalAlign=top;childLayout=stackLayout;horizontal=1;startSize=26;horizontalStack=0;resizeParent=1;resizeLast=0;collapsible=1;marginBottom=0;swimlaneFillColor=#ffffff;rounded=0;shadow=0;comic=0;labelBackgroundColor=none;strokeWidth=1;fillColor=none;fontFamily=Verdana;fontSize=12" parent="1" vertex="1">
          <mxGeometry x="1600" y="300.5" width="270" height="290" as="geometry" />
        </mxCell>
        <mxCell id="6ayFiNfjoUgFsHISApw_-62" value="" style="line;html=1;strokeWidth=1;fillColor=none;align=left;verticalAlign=middle;spacingTop=-1;spacingLeft=3;spacingRight=3;rotatable=0;labelPosition=right;points=[];portConstraint=eastwest;" parent="6ayFiNfjoUgFsHISApw_-57" vertex="1">
          <mxGeometry y="26" width="270" height="8" as="geometry" />
        </mxCell>
        <mxCell id="6ayFiNfjoUgFsHISApw_-72" value="&lt;div style=&quot;background-color:#ffffff;padding:0px 0px 0px 2px;&quot;&gt;&lt;div style=&quot;font-family: &amp;quot;Courier New&amp;quot;; font-size: 10pt; white-space: pre;&quot;&gt;&lt;p style=&quot;font-size: 13.3333px; margin: 0px;&quot;&gt;&lt;span style=&quot;color: rgb(127, 0, 85); font-weight: bold;&quot;&gt;#ifndef&lt;/span&gt; __STM32F4xx_HAL_CONF_H&lt;/p&gt;&lt;p style=&quot;font-size: 13.3333px; margin: 0px;&quot;&gt;&lt;span style=&quot;color: rgb(127, 0, 85); font-weight: bold;&quot;&gt;#define&lt;/span&gt; __STM32F4xx_HAL_CONF_H&lt;/p&gt;&lt;p style=&quot;font-size: 13.3333px; margin: 0px;&quot;&gt;&lt;span style=&quot;padding: 0px 0px 0px 2px;&quot;&gt;&lt;span style=&quot;font-size: 10pt;&quot;&gt;&lt;span style=&quot;color: rgb(127, 0, 85); font-weight: bold;&quot;&gt;#define&lt;/span&gt; HAL_MODULE_ENABLED&lt;/span&gt;&lt;/span&gt;&lt;br&gt;&lt;/p&gt;&lt;p style=&quot;font-size: 13.3333px; margin: 0px;&quot;&gt;&lt;span style=&quot;padding: 0px 0px 0px 2px;&quot;&gt;&lt;span style=&quot;padding: 0px 0px 0px 2px;&quot;&gt;&lt;span style=&quot;font-size: 10pt;&quot;&gt;&lt;span style=&quot;color: rgb(127, 0, 85); font-weight: bold;&quot;&gt;#define&lt;/span&gt; HAL_ADC_MODULE_ENABLED&lt;/span&gt;&lt;/span&gt;&lt;/span&gt;&lt;/p&gt;&lt;p style=&quot;font-size: 13.3333px; margin: 0px;&quot;&gt;&lt;span style=&quot;font-size: 10pt; color: rgb(127, 0, 85); font-weight: bold;&quot;&gt;#define&lt;/span&gt;&lt;span style=&quot;font-size: 10pt;&quot;&gt; HAL_RTC_MODULE_ENABLED&lt;/span&gt;&lt;/p&gt;&lt;p style=&quot;font-size: 13.3333px; margin: 0px;&quot;&gt;&lt;span style=&quot;font-size: 10pt; color: rgb(127, 0, 85); font-weight: bold;&quot;&gt;#define&lt;/span&gt;&lt;span style=&quot;font-size: 10pt;&quot;&gt; HAL_SPI_MODULE_ENABLED&lt;/span&gt;&lt;/p&gt;&lt;div style=&quot;font-size: 13.3333px; padding: 0px 0px 0px 2px;&quot;&gt;&lt;div style=&quot;font-size: 10pt;&quot;&gt;&lt;p style=&quot;margin: 0px;&quot;&gt;&lt;span style=&quot;color: rgb(127, 0, 85); font-weight: bold;&quot;&gt;#define&lt;/span&gt; HAL_TIM_MODULE_ENABLED&lt;/p&gt;&lt;p style=&quot;margin: 0px;&quot;&gt;...&lt;/p&gt;&lt;/div&gt;&lt;/div&gt;&lt;/div&gt;&lt;/div&gt;" style="text;html=1;strokeColor=none;fillColor=none;align=left;verticalAlign=top;spacingLeft=4;spacingRight=4;whiteSpace=wrap;overflow=hidden;rotatable=0;points=[[0,0.5],[1,0.5]];portConstraint=eastwest;" parent="6ayFiNfjoUgFsHISApw_-57" vertex="1">
          <mxGeometry y="34" width="270" height="146" as="geometry" />
        </mxCell>
        <mxCell id="6ayFiNfjoUgFsHISApw_-63" value="&lt;div style=&quot;background-color:#ffffff;padding:0px 0px 0px 2px;&quot;&gt;&lt;div style=&quot;font-family: &amp;quot;Courier New&amp;quot;; font-size: 10pt; white-space: pre;&quot;&gt;&lt;p style=&quot;font-size: 13.3333px; margin: 0px;&quot;&gt;&lt;span style=&quot;padding: 0px 0px 0px 2px;&quot;&gt;&lt;span style=&quot;font-size: 10pt;&quot;&gt;&lt;span style=&quot;color:#7f0055;font-weight:bold;&quot;&gt;#include&lt;/span&gt; &lt;span style=&quot;color:#2a00ff;&quot;&gt;&quot;stm32f4xx_hal_rcc.h&quot;&lt;/span&gt;&lt;/span&gt;&lt;/span&gt;&lt;/p&gt;&lt;p style=&quot;font-size: 13.3333px; margin: 0px;&quot;&gt;&lt;span style=&quot;font-size: 10pt; color: rgb(127, 0, 85); font-weight: bold;&quot;&gt;#include&lt;/span&gt;&lt;span style=&quot;font-size: 10pt;&quot;&gt; &lt;/span&gt;&lt;span style=&quot;font-size: 10pt; color: rgb(42, 0, 255);&quot;&gt;&quot;stm32f4xx_hal_gpio.h&quot;&lt;/span&gt;&lt;/p&gt;&lt;p style=&quot;font-size: 13.3333px; margin: 0px;&quot;&gt;&lt;span style=&quot;font-size: 10pt; color: rgb(127, 0, 85); font-weight: bold;&quot;&gt;#include&lt;/span&gt;&lt;span style=&quot;font-size: 10pt;&quot;&gt; &lt;/span&gt;&lt;span style=&quot;font-size: 10pt; color: rgb(42, 0, 255);&quot;&gt;&quot;stm32f4xx_hal_exti.h&quot;&lt;/span&gt;&lt;/p&gt;&lt;p style=&quot;font-size: 13.3333px; margin: 0px;&quot;&gt;&lt;span style=&quot;padding: 0px 0px 0px 2px;&quot;&gt;&lt;span style=&quot;font-size: 10pt;&quot;&gt;&lt;span style=&quot;color:#7f0055;font-weight:bold;&quot;&gt;#include&lt;/span&gt; &lt;span style=&quot;color:#2a00ff;&quot;&gt;&quot;stm32f4xx_hal_dma.h&quot;&lt;/span&gt;&lt;/span&gt;&lt;/span&gt;&lt;span style=&quot;font-size: 10pt; color: rgb(42, 0, 255);&quot;&gt;&lt;br&gt;&lt;/span&gt;&lt;/p&gt;&lt;p style=&quot;font-size: 13.3333px; margin: 0px;&quot;&gt;&lt;span style=&quot;padding: 0px 0px 0px 2px;&quot;&gt;&lt;span style=&quot;font-size: 10pt;&quot;&gt;&lt;span style=&quot;color:#2a00ff;&quot;&gt;....&lt;/span&gt;&lt;/span&gt;&lt;/span&gt;&lt;/p&gt;&lt;/div&gt;&lt;/div&gt;" style="text;html=1;strokeColor=none;fillColor=none;align=left;verticalAlign=top;spacingLeft=4;spacingRight=4;whiteSpace=wrap;overflow=hidden;rotatable=0;points=[[0,0.5],[1,0.5]];portConstraint=eastwest;" parent="6ayFiNfjoUgFsHISApw_-57" vertex="1">
          <mxGeometry y="180" width="270" height="110" as="geometry" />
        </mxCell>
        <mxCell id="6ayFiNfjoUgFsHISApw_-65" value="&lt;span style=&quot;background-color:#ffffff;padding:0px 0px 0px 2px;&quot;&gt;&lt;span style=&quot;font-family: &amp;quot;Courier New&amp;quot;; font-size: 10pt; white-space: pre;&quot;&gt;&lt;span style=&quot;color:#7f0055;font-weight:bold;&quot;&gt;#include&lt;/span&gt; &lt;span style=&quot;color:#2a00ff;&quot;&gt;&quot;stm32f4xx_hal_rcc.h&quot;&lt;/span&gt;&lt;/span&gt;&lt;/span&gt;" style="shape=note;whiteSpace=wrap;html=1;backgroundOutline=1;darkOpacity=0.05;" parent="1" vertex="1">
          <mxGeometry x="2010" y="150" width="260" height="90" as="geometry" />
        </mxCell>
        <mxCell id="6ayFiNfjoUgFsHISApw_-69" value="............................." style="shape=note;whiteSpace=wrap;html=1;backgroundOutline=1;darkOpacity=0.05;" parent="1" vertex="1">
          <mxGeometry x="2010" y="720" width="240" height="70" as="geometry" />
        </mxCell>
        <mxCell id="6ayFiNfjoUgFsHISApw_-70" value="" style="endArrow=classic;startArrow=classic;html=1;rounded=0;" parent="1" edge="1">
          <mxGeometry width="50" height="50" relative="1" as="geometry">
            <mxPoint x="810" y="180" as="sourcePoint" />
            <mxPoint x="1000" y="400" as="targetPoint" />
          </mxGeometry>
        </mxCell>
        <mxCell id="6ayFiNfjoUgFsHISApw_-71" value="" style="endArrow=classic;startArrow=classic;html=1;rounded=0;" parent="1" edge="1">
          <mxGeometry width="50" height="50" relative="1" as="geometry">
            <mxPoint x="1350" y="420" as="sourcePoint" />
            <mxPoint x="1570" y="420" as="targetPoint" />
          </mxGeometry>
        </mxCell>
        <mxCell id="6ayFiNfjoUgFsHISApw_-73" value="&lt;span style=&quot;background-color:#ffffff;padding:0px 0px 0px 2px;&quot;&gt;&lt;span style=&quot;font-family: &amp;quot;Courier New&amp;quot;; font-size: 10pt; white-space: pre;&quot;&gt;&lt;span style=&quot;color:#7f0055;font-weight:bold;&quot;&gt;#include&lt;/span&gt; &lt;span style=&quot;color:#2a00ff;&quot;&gt;&quot;stm32f4xx_hal_gpio.h&quot;&lt;/span&gt;&lt;/span&gt;&lt;/span&gt;" style="shape=note;whiteSpace=wrap;html=1;backgroundOutline=1;darkOpacity=0.05;" parent="1" vertex="1">
          <mxGeometry x="2010" y="300" width="260" height="90" as="geometry" />
        </mxCell>
        <mxCell id="6ayFiNfjoUgFsHISApw_-74" value="&lt;span style=&quot;background-color:#ffffff;padding:0px 0px 0px 2px;&quot;&gt;&lt;span style=&quot;font-family: &amp;quot;Courier New&amp;quot;; font-size: 10pt; white-space: pre;&quot;&gt;&lt;span style=&quot;color:#7f0055;font-weight:bold;&quot;&gt;#include&lt;/span&gt; &lt;span style=&quot;color:#2a00ff;&quot;&gt;&quot;stm32f4xx_hal_exti.h&quot;&lt;/span&gt;&lt;/span&gt;&lt;/span&gt;" style="shape=note;whiteSpace=wrap;html=1;backgroundOutline=1;darkOpacity=0.05;" parent="1" vertex="1">
          <mxGeometry x="2010" y="450" width="260" height="90" as="geometry" />
        </mxCell>
        <mxCell id="6ayFiNfjoUgFsHISApw_-75" value="&lt;span style=&quot;background-color:#ffffff;padding:0px 0px 0px 2px;&quot;&gt;&lt;span style=&quot;font-family: &amp;quot;Courier New&amp;quot;; font-size: 10pt; white-space: pre;&quot;&gt;&lt;span style=&quot;color:#7f0055;font-weight:bold;&quot;&gt;#include&lt;/span&gt; &lt;span style=&quot;color:#2a00ff;&quot;&gt;&quot;stm32f4xx_hal_dma.h&quot;&lt;/span&gt;&lt;/span&gt;&lt;/span&gt;" style="shape=note;whiteSpace=wrap;html=1;backgroundOutline=1;darkOpacity=0.05;" parent="1" vertex="1">
          <mxGeometry x="2010" y="580" width="260" height="90" as="geometry" />
        </mxCell>
        <mxCell id="6ayFiNfjoUgFsHISApw_-76" value="" style="endArrow=classic;startArrow=classic;html=1;rounded=0;" parent="1" edge="1">
          <mxGeometry width="50" height="50" relative="1" as="geometry">
            <mxPoint x="1880" y="400" as="sourcePoint" />
            <mxPoint x="2000" y="210" as="targetPoint" />
          </mxGeometry>
        </mxCell>
        <mxCell id="6ayFiNfjoUgFsHISApw_-77" value="" style="endArrow=classic;startArrow=classic;html=1;rounded=0;" parent="1" edge="1">
          <mxGeometry width="50" height="50" relative="1" as="geometry">
            <mxPoint x="1890" y="430" as="sourcePoint" />
            <mxPoint x="2000" y="350" as="targetPoint" />
          </mxGeometry>
        </mxCell>
        <mxCell id="6ayFiNfjoUgFsHISApw_-78" value="" style="endArrow=classic;startArrow=classic;html=1;rounded=0;" parent="1" edge="1">
          <mxGeometry width="50" height="50" relative="1" as="geometry">
            <mxPoint x="1890" y="450" as="sourcePoint" />
            <mxPoint x="2000" y="500" as="targetPoint" />
          </mxGeometry>
        </mxCell>
        <mxCell id="6ayFiNfjoUgFsHISApw_-79" value="" style="endArrow=classic;startArrow=classic;html=1;rounded=0;" parent="1" edge="1">
          <mxGeometry width="50" height="50" relative="1" as="geometry">
            <mxPoint x="1900" y="480" as="sourcePoint" />
            <mxPoint x="2000" y="620" as="targetPoint" />
          </mxGeometry>
        </mxCell>
        <mxCell id="6ayFiNfjoUgFsHISApw_-80" value="" style="endArrow=classic;startArrow=classic;html=1;rounded=0;" parent="1" edge="1">
          <mxGeometry width="50" height="50" relative="1" as="geometry">
            <mxPoint x="1890" y="510" as="sourcePoint" />
            <mxPoint x="2000" y="760" as="targetPoint" />
          </mxGeometry>
        </mxCell>
      </root>
    </mxGraphModel>
  </diagram>
</mxfile>
